<?xml version="1.0"?>
<svg xmlns="http://www.w3.org/2000/svg" xmlns:xlink="http://www.w3.org/1999/xlink" xmlns:svgjs="http://svgjs.com/svgjs" version="1.1" width="512" height="512" x="0" y="0" viewBox="0 0 512 512" style="enable-background:new 0 0 512 512" xml:space="preserve" class=""><g><g xmlns="http://www.w3.org/2000/svg"><g><path d="m124.276 184.184c0 8.177 3.677 15.507 9.459 20.438l-35.561 79.336c-1.694 3.78-.004 8.217 3.776 9.912.997.447 2.038.658 3.063.658 2.865 0 5.601-1.651 6.848-4.434l35.551-79.312c1.218.17 2.46.264 3.724.264 4.684 0 9.089-1.208 12.927-3.324l51.864 51.889c-2.117 3.838-3.326 8.245-3.326 12.93 0 14.795 12.049 26.833 26.86 26.833s26.86-12.037 26.86-26.833c0-5.547-1.69-10.706-4.582-14.99l55.296-66.204c3.302 1.453 6.948 2.266 10.781 2.266 14.811 0 26.859-12.05 26.859-26.861 0-3.645-.733-7.122-2.054-10.294l48.129-38.631c4.362 3.059 9.669 4.862 15.391 4.862 14.811 0 26.86-12.037 26.86-26.833 0-14.811-12.05-26.86-26.86-26.86s-26.86 12.049-26.86 26.86c0 3.644.734 7.12 2.057 10.291l-48.117 38.621c-4.365-3.069-9.677-4.878-15.406-4.878-14.811 0-26.86 12.05-26.86 26.861 0 5.54 1.687 10.693 4.572 14.974l-55.303 66.212c-3.297-1.448-6.936-2.258-10.762-2.258-4.684 0-9.09 1.208-12.927 3.324l-51.864-51.889c2.117-3.839 3.326-8.246 3.326-12.931 0-14.811-12.049-26.861-26.86-26.861s-26.861 12.051-26.861 26.862zm291.865-100.188c6.54 0 11.86 5.32 11.86 11.86 0 6.524-5.32 11.833-11.86 11.833-3.695 0-6.999-1.696-9.176-4.347-.02-.025-.035-.052-.055-.076-.004-.005-.009-.01-.013-.015-1.633-2.028-2.616-4.597-2.616-7.394 0-6.541 5.32-11.861 11.86-11.861zm-88.325 70.894c3.647 0 6.912 1.657 9.089 4.256.049.065.091.132.142.196.029.036.061.065.09.1 1.584 2.017 2.539 4.551 2.539 7.309 0 6.54-5.32 11.861-11.859 11.861-6.54 0-11.86-5.321-11.86-11.861s5.319-11.861 11.859-11.861zm-76.494 117.65c0 6.524-5.32 11.833-11.86 11.833s-11.86-5.308-11.86-11.833c0-6.54 5.32-11.86 11.86-11.86s11.86 5.32 11.86 11.86zm-88.325-88.356c0 6.54-5.32 11.861-11.86 11.861s-11.86-5.321-11.86-11.861 5.32-11.861 11.86-11.861 11.86 5.321 11.86 11.861z" fill="#82b2e4" data-original="#000000" style="" class=""/><path d="m327.816 299.373c12.205 0 22.527-8.177 25.784-19.333h36.757c3.257 11.156 13.58 19.333 25.785 19.333 14.811 0 26.86-12.037 26.86-26.833 0-14.811-12.05-26.86-26.86-26.86-12.208 0-22.532 8.189-25.787 19.36h-36.752c-3.255-11.171-13.579-19.36-25.786-19.36-14.811 0-26.86 12.049-26.86 26.86 0 4.676 1.206 9.074 3.32 12.906l-51.885 51.887c-3.838-2.117-8.244-3.325-12.929-3.325-12.208 0-22.532 8.189-25.787 19.361h-36.752c-3.255-11.171-13.579-19.361-25.787-19.361-14.811 0-26.86 12.05-26.86 26.861 0 4.685 1.208 9.091 3.325 12.929l-32.593 32.592c-2.929 2.929-2.929 7.678 0 10.606 1.464 1.465 3.384 2.197 5.303 2.197s3.839-.732 5.303-2.197l32.592-32.593c3.838 2.117 8.244 3.325 12.929 3.325 12.208 0 22.532-8.189 25.787-19.36h36.752c3.255 11.171 13.579 19.36 25.787 19.36 14.811 0 26.86-12.049 26.86-26.86 0-4.684-1.208-9.091-3.325-12.929l51.888-51.89c3.839 2.116 8.246 3.324 12.931 3.324zm88.325-38.693c6.54 0 11.86 5.32 11.86 11.86 0 6.524-5.32 11.833-11.86 11.833s-11.86-5.308-11.86-11.833c0-6.54 5.32-11.86 11.86-11.86zm-88.325 0c6.539 0 11.859 5.32 11.859 11.86 0 6.524-5.32 11.833-11.859 11.833-6.54 0-11.86-5.308-11.86-11.833 0-6.54 5.32-11.86 11.86-11.86zm-176.68 112.049c-6.54 0-11.86-5.32-11.86-11.86s5.32-11.861 11.86-11.861 11.86 5.321 11.86 11.861-5.32 11.86-11.86 11.86zm88.326 0c-6.54 0-11.86-5.32-11.86-11.86s5.32-11.861 11.86-11.861 11.86 5.321 11.86 11.861-5.32 11.86-11.86 11.86z" fill="#82b2e4" data-original="#000000" style="" class=""/><path d="m504.495 497h-80.854v-20.308c0-4.142-3.357-7.5-7.5-7.5s-7.5 3.358-7.5 7.5v20.308h-73.325v-20.308c0-4.142-3.357-7.5-7.5-7.5s-7.5 3.358-7.5 7.5v20.308h-73.354v-20.308c0-4.142-3.358-7.5-7.5-7.5s-7.5 3.358-7.5 7.5v20.308h-73.326v-20.308c0-4.142-3.358-7.5-7.5-7.5s-7.5 3.358-7.5 7.5v20.308h-118.027l56.736-56.76c2.928-2.93 2.927-7.678-.002-10.607-2.93-2.928-7.679-2.927-10.607.002l-40.699 40.717 67.077-149.616c1.694-3.78.004-8.218-3.775-9.912-3.781-1.695-8.217-.004-9.912 3.775l-69.419 154.839v-101.07h20.307c4.142 0 7.5-3.358 7.5-7.5s-3.358-7.5-7.5-7.5h-20.307v-73.328h20.307c4.142 0 7.5-3.358 7.5-7.5s-3.358-7.5-7.5-7.5h-20.307v-73.356h20.307c4.142 0 7.5-3.358 7.5-7.5s-3.358-7.5-7.5-7.5h-20.307v-73.328h20.307c4.142 0 7.5-3.358 7.5-7.5s-3.358-7.5-7.5-7.5h-20.307v-80.856c0-4.142-3.358-7.5-7.5-7.5s-7.5 3.358-7.5 7.5v496.835c-.122 4.146 3.396 7.693 7.523 7.665h496.963c4.143 0 7.5-3.358 7.5-7.5s-3.357-7.5-7.499-7.5z" fill="#82b2e4" data-original="#000000" style="" class=""/><path d="m197.113 29.967h45.637c4.142 0 7.5-3.358 7.5-7.5s-3.358-7.5-7.5-7.5h-45.637c-4.142 0-7.5 3.358-7.5 7.5s3.358 7.5 7.5 7.5z" fill="#82b2e4" data-original="#000000" style="" class=""/><path d="m197.113 66.307h92.748c4.143 0 7.5-3.358 7.5-7.5s-3.357-7.5-7.5-7.5h-92.748c-4.142 0-7.5 3.358-7.5 7.5s3.358 7.5 7.5 7.5z" fill="#82b2e4" data-original="#000000" style="" class=""/><path d="m103.204 80.622h39.684c11.169 0 20.255-9.087 20.255-20.256v-40.138c0-11.154-9.086-20.228-20.255-20.228h-39.684c-11.169 0-20.256 9.074-20.256 20.228v40.139c0 11.168 9.087 20.255 20.256 20.255zm-5.256-60.394c0-2.882 2.358-5.228 5.256-5.228h39.684c2.898 0 5.255 2.345 5.255 5.228v40.139c0 2.898-2.357 5.256-5.255 5.256h-39.684c-2.898 0-5.256-2.358-5.256-5.256z" fill="#82b2e4" data-original="#000000" style="" class=""/></g></g></g></svg>
