<?xml version="1.0"?>
<svg xmlns="http://www.w3.org/2000/svg" xmlns:xlink="http://www.w3.org/1999/xlink" xmlns:svgjs="http://svgjs.com/svgjs" version="1.1" width="512" height="512" x="0" y="0" viewBox="0 0 512 512" style="enable-background:new 0 0 512 512" xml:space="preserve" class=""><g><g xmlns="http://www.w3.org/2000/svg"><g><path d="m79.745 174.512h-30.954c-12.799 0-23.212-10.412-23.212-23.211s10.413-23.211 23.212-23.211h30.955c4.152 0 7.518 3.366 7.518 7.518s-3.366 7.518-7.518 7.518h-30.955c-4.508 0-8.176 3.667-8.176 8.176s3.668 8.176 8.176 8.176h30.955c4.152 0 7.518 3.366 7.518 7.518s-3.367 7.516-7.519 7.516z" fill="#4db787" data-original="#26457d" style="" class=""/></g><g><path d="m22.134 209.97c-4.152 0-7.518-3.366-7.518-7.518v-35.037c0-12.459 10.136-22.595 22.595-22.595h5.935c4.152 0 7.518 3.366 7.518 7.518s-3.366 7.518-7.518 7.518h-5.935c-4.169 0-7.56 3.391-7.56 7.56v35.037c.001 4.151-3.365 7.517-7.517 7.517z" fill="#4ad395" data-original="#30579d" style="" class=""/></g><g><path d="m460.362 174.512h-30.955c-4.152 0-7.518-3.366-7.518-7.518s3.366-7.518 7.518-7.518h30.955c4.508 0 8.176-3.667 8.176-8.176s-3.667-8.176-8.176-8.176h-30.955c-4.152 0-7.518-3.366-7.518-7.518s3.366-7.518 7.518-7.518h30.955c12.799 0 23.211 10.412 23.211 23.211s-10.412 23.213-23.211 23.213z" fill="#4db787" data-original="#26457d" style="" class=""/></g><g><path d="m389.847 376.756h-270.445c-24.853 0-45-20.147-45-45v-147.538l7.223-19.631-7.223-18.428v-1.683c0-24.853 20.147-45 45-45h270.445c24.853 0 45 20.147 45 45v1.683l-5.176 18.756 5.176 19.303v147.538c0 24.853-20.147 45-45 45z" fill="#4ad395" data-original="#e28086" style="" class=""/></g><path d="m403.723 101.667c1.416 4.372 2.19 9.032 2.19 13.876v187.279c0 24.853-20.147 45-45 45h-270.445c-4.843 0-9.504-.774-13.876-2.19 5.85 18.06 22.8 31.124 42.81 31.124h270.445c24.853 0 45-20.147 45-45v-147.538l-5.176-19.303 5.176-18.756v-1.683c0-20.009-13.063-36.959-31.124-42.809z" fill="#49c18b" data-original="#dd636e" style="" class=""/><g><path d="m309.995 67.128h-109.656l18.805-43.979h69.352z" fill="#4ad395" data-original="#e28086" style="" class=""/></g><g><path d="m288.496 23.149h-22.681l2.481 5.074c4.934 10.093-2.414 21.864-13.649 21.864h-47.022l-7.286 17.04h109.657z" fill="#49c18b" data-original="#dd636e" style="" class=""/></g><g><path d="m181.781 116.182h-29.798c-4.052 0-6.944-3.925-5.744-7.796l15.493-49.963c6.505-20.976 25.908-35.274 47.87-35.274h37.17l-21.427 9.906c-7.729 3.573-13.581 10.256-16.103 18.389l-17.887 57.683c-1.301 4.195-5.182 7.055-9.574 7.055z" fill="#4ad395" data-original="#30579d" style="" class=""/></g><g><path d="m230.108 23.149-21.427 9.906c-7.729 3.573-13.581 10.256-16.103 18.389l-17.887 57.683c-1.301 4.195-5.182 7.055-9.574 7.055h16.664c4.392 0 8.273-2.86 9.574-7.055l17.887-57.683c2.522-8.133 8.374-14.816 16.103-18.389l21.427-9.906z" fill="#4db787" data-original="#26457d" style="" class=""/></g><g><path d="m327.469 116.182h29.798c4.052 0 6.944-3.925 5.744-7.796l-15.493-49.963c-6.505-20.976-25.908-35.274-47.87-35.274h-37.17l21.427 9.906c7.729 3.573 13.581 10.256 16.103 18.389l17.887 57.683c1.301 4.195 5.181 7.055 9.574 7.055z" fill="#4ad395" data-original="#30579d" style="" class=""/></g><g><path d="m363.011 108.386-15.493-49.963c-6.505-20.976-25.908-35.274-47.87-35.274h-17.71c21.962 0 41.365 14.298 47.87 35.274l15.493 49.963c1.2 3.87-1.692 7.796-5.744 7.796h17.71c4.052 0 6.944-3.926 5.744-7.796z" fill="#4db787" data-original="#26457d" style="" class=""/></g><g><path d="m302.981 244.316h-25.382c-1.514 0-2.741-1.227-2.741-2.741v-25.382c0-2.27-1.841-4.111-4.111-4.111h-32.245c-2.27 0-4.111 1.841-4.111 4.111v25.382c0 1.514-1.227 2.741-2.741 2.741h-25.382c-2.27 0-4.111 1.841-4.111 4.111v32.245c0 2.27 1.841 4.111 4.111 4.111h25.382c1.514 0 2.741 1.227 2.741 2.741v25.382c0 2.27 1.841 4.111 4.111 4.111h32.245c2.27 0 4.111-1.841 4.111-4.111v-25.382c0-1.514 1.227-2.741 2.741-2.741h25.382c2.27 0 4.111-1.841 4.111-4.111v-32.245c0-2.27-1.84-4.111-4.111-4.111z" fill="#efecef" data-original="#efecef" style="" class=""/></g><g><path d="m489.518 209.97c-4.152 0-7.518-3.366-7.518-7.518v-35.037c0-4.169-3.391-7.56-7.559-7.56h-5.936c-4.152 0-7.518-3.366-7.518-7.518s3.366-7.518 7.518-7.518h5.936c12.459 0 22.595 10.136 22.595 22.595v35.037c-.001 4.153-3.366 7.519-7.518 7.519z" fill="#4ad395" data-original="#30579d" style="" class=""/></g><g><g><path d="m412.064 488.851c-14.607 0-28.913-4.031-41.374-11.658l-40.594-24.851c-11.577-7.084-25.926-7.036-37.452.132l-32.657 20.306c-16.907 10.514-36.368 16.071-56.278 16.071h-103.773c-26.777 0-51.929-10.451-70.821-29.427-18.893-18.977-29.233-44.174-29.114-70.951l.645-145.831c.018-4.08.728-8.128 2.099-11.971l11.813-33.105c2.635-7.384 13.077-7.387 15.716-.005l11.848 33.138c1.412 3.95 2.125 8.116 2.107 12.311l-.644 145.655c-.067 15.099 5.763 29.309 16.417 40.009 10.654 10.701 24.837 16.594 39.936 16.594h103.773c11.768 0 23.271-3.284 33.265-9.498l32.657-20.307c25.61-15.925 57.499-16.038 83.22-.291l40.594 24.849c5.607 3.433 12.046 5.247 18.62 5.247 31.073 0 56.353-25.28 56.353-56.353v-147.669c0-4.28.761-8.525 2.248-12.539l11.811-31.883c2.696-7.277 12.997-7.255 15.661.033l11.668 31.915c1.452 3.971 2.195 8.166 2.195 12.394v147.749c-.003 55.105-44.834 99.936-99.939 99.936z" fill="#efecef" data-original="#efecef" style="" class=""/></g></g><g><g><path d="m509.805 228.772-11.668-31.914c-2.062-5.641-8.686-6.909-12.831-3.83l4.076 11.148c1.452 3.971 2.195 8.166 2.195 12.394v147.748c0 55.105-44.831 99.936-99.936 99.936-14.607 0-28.913-4.031-41.374-11.658l-40.594-24.851c-11.577-7.084-25.926-7.036-37.452.132l-32.657 20.306c-16.907 10.514-36.368 16.071-56.278 16.071h-103.773c-24.46 0-47.56-8.725-65.776-24.698 4.219 7.152 9.363 13.826 15.378 19.867 18.892 18.976 44.044 29.427 70.821 29.427h103.773c19.911 0 39.371-5.557 56.278-16.071l32.657-20.306c11.526-7.168 25.875-7.216 37.452-.132l40.594 24.851c12.46 7.627 26.767 11.658 41.374 11.658 55.105 0 99.936-44.831 99.936-99.936v-147.748c0-4.228-.743-8.423-2.195-12.394z" fill="#e2d8ec" data-original="#e2d8ec" style="" class=""/></g></g><g><path d="m434.847 184.218h-360.445v-30.541h360.445v7.518l-4.534 6.111 4.534 6.89z" fill="#4ad395" data-original="#30579d" style="" class=""/></g><path d="m405.914 153.677h28.934v30.541h-28.934z" fill="#4db787" data-original="#26457d" style="" class=""/><g><path d="m74.402 146.159h360.445v15.036h-360.445z" fill="#e3e3e3" data-original="#21386b" style="" class=""/></g><g><path d="m394.745 216.083-9.928-49.944c-1.44-7.244-7.798-12.462-15.184-12.462-7.386 0-13.743 5.218-15.184 12.462l-9.928 49.944c-3.148 15.835 8.967 30.595 25.112 30.595 16.144 0 28.259-14.76 25.112-30.595zm-25.112 12.637c-4.262 0-7.717-3.455-7.717-7.717s3.455-7.717 7.717-7.717 7.717 3.455 7.717 7.717-3.455 7.717-7.717 7.717z" fill="#4db787" data-original="#26457d" style="" class=""/></g><g><g><path d="m394.745 216.083-9.928-49.944c-1.44-7.244-7.798-12.462-15.184-12.462-2.255 0-4.412.492-6.365 1.374 4.443 2.007 7.819 6.056 8.819 11.089l9.928 49.944c2.717 13.67-5.943 26.529-18.747 29.793 2.028.517 4.157.802 6.365.802 16.144-.001 28.259-14.761 25.112-30.596z" fill="#e3e3e3" data-original="#21386b" style="" class=""/></g></g></g></g></svg>
